<?xml version="1.0" encoding="UTF-8" standalone="no"?>
<!-- Created with Inkscape (http://www.inkscape.org/) -->

<svg
   xmlns:dc="http://purl.org/dc/elements/1.1/"
   xmlns:cc="http://creativecommons.org/ns#"
   xmlns:rdf="http://www.w3.org/1999/02/22-rdf-syntax-ns#"
   xmlns:svg="http://www.w3.org/2000/svg"
   xmlns="http://www.w3.org/2000/svg"
   xmlns:xlink="http://www.w3.org/1999/xlink"
   xmlns:sodipodi="http://sodipodi.sourceforge.net/DTD/sodipodi-0.dtd"
   xmlns:inkscape="http://www.inkscape.org/namespaces/inkscape"
   width="768.33331"
   height="668.12408"
   id="svg2897"
   version="1.1"
   inkscape:version="0.92.4 5da689c313, 2019-01-14"
   sodipodi:docname="logo.svg">
  <defs
     id="defs2899">
    <inkscape:perspective
       sodipodi:type="inkscape:persp3d"
       inkscape:vp_x="0 : 495 : 1"
       inkscape:vp_y="0 : 1000 : 0"
       inkscape:vp_z="765 : 495 : 1"
       inkscape:persp3d-origin="382.5 : 330 : 1"
       id="perspective2906" />
    <inkscape:perspective
       id="perspective2999"
       inkscape:persp3d-origin="0.5 : 0.33333333 : 1"
       inkscape:vp_z="1 : 0.5 : 1"
       inkscape:vp_y="0 : 1000 : 0"
       inkscape:vp_x="0 : 0.5 : 1"
       sodipodi:type="inkscape:persp3d" />
    <linearGradient
       id="linearGradient4293">
      <stop
         id="stop4295"
         offset="0"
         style="stop-color:#ffffff;stop-opacity:1;" />
      <stop
         id="stop4297"
         offset="1"
         style="stop-color:#d8dc13;stop-opacity:1;" />
    </linearGradient>
    <linearGradient
       id="linearGradient3028">
      <stop
         id="stop3030"
         offset="0"
         style="stop-color:#ffffff;stop-opacity:1;" />
      <stop
         id="stop3032"
         offset="1"
         style="stop-color:#d8dc13;stop-opacity:1;" />
    </linearGradient>
    <inkscape:perspective
       id="perspective3424"
       inkscape:persp3d-origin="0.5 : 0.33333333 : 1"
       inkscape:vp_z="1 : 0.5 : 1"
       inkscape:vp_y="0 : 1000 : 0"
       inkscape:vp_x="0 : 0.5 : 1"
       sodipodi:type="inkscape:persp3d" />
    <filter
       color-interpolation-filters="sRGB"
       inkscape:collect="always"
       id="filter3375-1"
       x="-0.17305118"
       width="1.3461024"
       y="-0.4243972"
       height="1.8487943">
      <feGaussianBlur
         inkscape:collect="always"
         stdDeviation="19.258301"
         id="feGaussianBlur3377-7" />
    </filter>
    <filter
       color-interpolation-filters="sRGB"
       inkscape:collect="always"
       id="filter3365-4"
       x="-0.16754124"
       width="1.3350825"
       y="-0.16041835"
       height="1.3208367">
      <feGaussianBlur
         inkscape:collect="always"
         stdDeviation="16.721735"
         id="feGaussianBlur3367-0" />
    </filter>
    <filter
       color-interpolation-filters="sRGB"
       inkscape:collect="always"
       id="filter3353-9"
       x="-0.13480912"
       width="1.2696182"
       y="-0.16003147"
       height="1.3200629">
      <feGaussianBlur
         inkscape:collect="always"
         stdDeviation="25.544273"
         id="feGaussianBlur3355-4" />
    </filter>
    <filter
       color-interpolation-filters="sRGB"
       inkscape:collect="always"
       id="filter4070-8"
       x="-0.15077047"
       width="1.3015409"
       y="-0.17954023"
       height="1.3590806">
      <feGaussianBlur
         inkscape:collect="always"
         stdDeviation="10.469752"
         id="feGaussianBlur4072-8" />
    </filter>
    <filter
       color-interpolation-filters="sRGB"
       inkscape:collect="always"
       id="filter4170-2"
       x="-0.14884727"
       width="1.2976944"
       y="-0.056540407"
       height="1.1130809">
      <feGaussianBlur
         inkscape:collect="always"
         stdDeviation="5.003053"
         id="feGaussianBlur4172-4" />
    </filter>
    <filter
       color-interpolation-filters="sRGB"
       inkscape:collect="always"
       id="filter4234-5">
      <feGaussianBlur
         inkscape:collect="always"
         stdDeviation="0.97384261"
         id="feGaussianBlur4236-5" />
    </filter>
    <radialGradient
       inkscape:collect="always"
       xlink:href="#linearGradient4293-1"
       id="radialGradient3293"
       gradientUnits="userSpaceOnUse"
       cx="214.28572"
       cy="526.64789"
       fx="214.28572"
       fy="526.64789"
       r="61.824001"
       gradientTransform="matrix(0.91738814,0,0,0.91577563,253.54058,-92.032087)" />
    <linearGradient
       id="linearGradient4293-1">
      <stop
         id="stop4295-7"
         offset="0"
         style="stop-color:#ffffff;stop-opacity:1;" />
      <stop
         id="stop4297-1"
         offset="1"
         style="stop-color:#d8dc13;stop-opacity:1;" />
    </linearGradient>
    <radialGradient
       inkscape:collect="always"
       xlink:href="#linearGradient4293-1"
       id="radialGradient3295"
       gradientUnits="userSpaceOnUse"
       cx="214.28572"
       cy="526.64789"
       fx="214.28572"
       fy="526.64789"
       r="61.824001"
       gradientTransform="matrix(0.91738814,0,0,0.91577563,140.83288,-94.648607)" />
    <linearGradient
       id="linearGradient3453">
      <stop
         id="stop3455"
         offset="0"
         style="stop-color:#ffffff;stop-opacity:1;" />
      <stop
         id="stop3457"
         offset="1"
         style="stop-color:#d8dc13;stop-opacity:1;" />
    </linearGradient>
  </defs>
  <sodipodi:namedview
     inkscape:document-units="in"
     pagecolor="#ffffff"
     bordercolor="#666666"
     borderopacity="1.0"
     inkscape:pageopacity="0.0"
     inkscape:pageshadow="2"
     inkscape:zoom="2.88"
     inkscape:cx="359.99071"
     inkscape:cy="483.70384"
     inkscape:current-layer="layer1"
     id="namedview2901"
     showgrid="false"
     inkscape:window-width="1875"
     inkscape:window-height="2068"
     inkscape:window-x="2190"
     inkscape:window-y="30"
     inkscape:window-maximized="0"
     inkscape:snap-global="false" />
  <metadata
     id="metadata2903">
    <rdf:RDF>
      <cc:Work
         rdf:about="">
        <dc:format>image/svg+xml</dc:format>
        <dc:type
           rdf:resource="http://purl.org/dc/dcmitype/StillImage" />
        <dc:title></dc:title>
      </cc:Work>
    </rdf:RDF>
  </metadata>
  <g
     inkscape:label="Layer 1"
     inkscape:groupmode="layer"
     id="layer1"
     transform="translate(2.2222277,-330.21165)">
    <path
       style="fill:#b8f88e;fill-opacity:1;stroke:#000000;stroke-width:8.3802824;stroke-linecap:butt;stroke-linejoin:miter;stroke-miterlimit:4;stroke-dasharray:none;stroke-opacity:1"
       d="m 203.15218,813.25243 c 0,0 -67.96445,-3.66731 -84.49633,25.67113 -16.5319,29.33839 34.90066,-3.66731 47.75879,22.00377 12.85814,25.67108 23.87941,25.67108 36.73754,16.50285 12.85814,-9.16823 42.24818,-18.33647 44.08505,1.83361 1.83688,20.17016 95.51761,-47.67484 80.82258,-64.17775 -14.69501,-16.5028 -42.24817,-23.83739 -42.24817,-23.83739 z"
       id="path3371"
       inkscape:connector-curvature="0" />
    <path
       id="path3373"
       d="m 18.530851,1021.2263 c 0,0 -84.741895,-4.3527 -105.354779,30.4691 -20.612892,34.8217 43.516104,-4.3528 59.548353,26.1162 16.03225,30.4691 29.7741773,30.4691 45.806426,19.5873 16.032249,-10.8818 52.67739,-21.7636 54.967712,2.1763 2.29032,23.9399 119.096707,-56.5853 100.774137,-76.1725 -18.32257,-19.5872 -52.67739,-28.29264 -52.67739,-28.29264 z"
       style="fill:#6fdd25;fill-opacity:1;stroke:none;filter:url(#filter3375-1)"
       transform="matrix(0.64290693,0,0,0.48695954,201.31531,314.11373)"
       inkscape:connector-curvature="0" />
    <path
       id="path4158"
       d="m 203.15218,813.25243 c 0,0 -67.96445,-3.66731 -84.49633,25.67113 -16.5319,29.33839 34.90066,-3.66731 47.75879,22.00377 12.85814,25.67108 23.87941,25.67108 36.73754,16.50285 12.85814,-9.16823 42.24818,-18.33647 44.08505,1.83361 1.83688,20.17016 95.51761,-47.67484 80.82258,-64.17775 -14.69501,-16.5028 -42.24817,-23.83739 -42.24817,-23.83739 z"
       style="fill:none;stroke:#000000;stroke-width:8.3802824;stroke-linecap:butt;stroke-linejoin:miter;stroke-miterlimit:4;stroke-dasharray:none;stroke-opacity:1"
       inkscape:connector-curvature="0" />
    <path
       style="fill:#b6f78b;fill-opacity:1;stroke:#000000;stroke-width:6.90770102;stroke-linecap:butt;stroke-linejoin:miter;stroke-miterlimit:4;stroke-dasharray:none;stroke-opacity:1"
       d="m 297.3337,825.52288 c 0,0 -2.89855,-10.06974 -9.18221,-25.61272 -6.28363,-15.54296 -15.95238,-36.55913 -29.49275,-58.45198 -13.54039,-21.89285 -30.9524,-44.66237 -52.72259,-63.71203 -21.77019,-19.04967 -47.89856,-34.37947 -78.87165,-41.39286 -5.69913,0.64611 -12.00014,42.48993 -12.48687,48.88179 0,0 -19.373898,142.25022 180.33225,142.18682 z"
       id="path3359"
       sodipodi:nodetypes="cssscccc"
       inkscape:connector-curvature="0" />
    <path
       id="path3363"
       d="m 126.58795,1012.049 c 0,0 -60.615875,-210.95406 -222.546723,-247.68547 0,0 3.709831,40.60289 -16.320687,64.00241 0,0 -25.32225,186.25246 235.6994,186.16946 z"
       style="fill:#6fdd25;fill-opacity:1;stroke:none;filter:url(#filter3365-4)"
       transform="matrix(0.64290693,0,0,0.64177688,201.31531,167.20907)"
       inkscape:connector-curvature="0" />
    <path
       style="fill:none;stroke:#000000;stroke-width:7.48071146;stroke-linecap:round;stroke-linejoin:miter;stroke-miterlimit:4;stroke-dasharray:none;stroke-opacity:1"
       d="m 146.209,690.398 c 0,0 18.36877,99.01699 112.04949,117.35348"
       id="path3369"
       inkscape:connector-curvature="0" />
    <path
       style="fill:none;stroke:#000000;stroke-width:6.22557592;stroke-linecap:round;stroke-linejoin:miter;stroke-miterlimit:4;stroke-dasharray:none;stroke-opacity:1"
       d="m 159.06714,851.75904 c 0,0 25.71627,-18.33653 60.61694,-20.17015"
       id="path4009"
       inkscape:connector-curvature="0" />
    <path
       id="path4011"
       d="m 239.47779,867.75629 c 0,0 13.5973,-15.7503 32.05079,-17.32528"
       style="fill:none;stroke:#000000;stroke-width:5.94950056;stroke-linecap:round;stroke-linejoin:miter;stroke-miterlimit:4;stroke-dasharray:none;stroke-opacity:1"
       inkscape:connector-curvature="0" />
    <path
       id="path4013"
       d="m 541.09482,813.25243 c 0,0 67.96445,-3.66731 84.49633,25.67113 16.5319,29.33839 -34.90067,-3.66731 -47.7588,22.00377 -12.85813,25.67108 -23.87939,25.67108 -36.73753,16.50285 -12.85814,-9.16823 -42.24818,-18.33647 -44.08505,1.83361 -1.83688,20.17016 -95.51761,-47.67484 -80.82258,-64.17775 14.69501,-16.5028 42.24817,-23.83739 42.24817,-23.83739 z"
       style="fill:#b8f88e;fill-opacity:1;stroke:#000000;stroke-width:8.3802824;stroke-linecap:butt;stroke-linejoin:miter;stroke-miterlimit:4;stroke-dasharray:none;stroke-opacity:1"
       inkscape:connector-curvature="0" />
    <path
       transform="matrix(-0.64290693,0,0,0.48695954,542.93169,314.11373)"
       style="fill:#6fdd25;fill-opacity:1;stroke:none;filter:url(#filter3375-1)"
       d="m 18.530851,1021.2263 c 0,0 -84.741895,-4.3527 -105.354779,30.4691 -20.612892,34.8217 43.516104,-4.3528 59.548353,26.1162 16.03225,30.4691 29.7741773,30.4691 45.806426,19.5873 16.032249,-10.8818 52.67739,-21.7636 54.967712,2.1763 2.29032,23.9399 119.096707,-56.5853 100.774137,-76.1725 -18.32257,-19.5872 -52.67739,-28.29264 -52.67739,-28.29264 z"
       id="path4015"
       inkscape:connector-curvature="0" />
    <path
       style="fill:none;stroke:#000000;stroke-width:8.3802824;stroke-linecap:butt;stroke-linejoin:miter;stroke-miterlimit:4;stroke-dasharray:none;stroke-opacity:1"
       d="m 541.09482,813.25243 c 0,0 67.96445,-3.66731 84.49633,25.67113 16.5319,29.33839 -34.90067,-3.66731 -47.7588,22.00377 -12.85813,25.67108 -23.87939,25.67108 -36.73753,16.50285 -12.85814,-9.16823 -42.24818,-18.33647 -44.08505,1.83361 -1.83688,20.17016 -95.51761,-47.67484 -80.82258,-64.17775 14.69501,-16.5028 42.24817,-23.83739 42.24817,-23.83739 z"
       id="path4147"
       inkscape:connector-curvature="0" />
    <path
       sodipodi:nodetypes="cssscccc"
       id="path4017"
       d="m 446.9133,825.52288 c 0,0 2.89855,-10.06974 9.1822,-25.61272 6.28364,-15.54296 15.95238,-36.55913 29.49276,-58.45198 13.54039,-21.89285 30.9524,-44.66237 52.72259,-63.71203 21.77018,-19.04967 47.89856,-34.37947 78.87165,-41.39286 5.69914,0.64611 12.00014,42.48993 12.48686,48.88179 0,0 19.37391,142.25022 -180.33224,142.18682 z"
       style="fill:#b6f78b;fill-opacity:1;stroke:#000000;stroke-width:6.90770102;stroke-linecap:butt;stroke-linejoin:miter;stroke-miterlimit:4;stroke-dasharray:none;stroke-opacity:1"
       inkscape:connector-curvature="0" />
    <path
       style="fill:#6fdd25;fill-opacity:1;stroke:none;filter:url(#filter3365-4)"
       d="m 126.58795,1012.049 c 0,0 -60.615875,-210.95406 -222.546723,-247.68547 0,0 3.709831,40.60289 -16.320687,64.00241 0,0 -25.32225,186.25246 235.6994,186.16946 z"
       id="path4019"
       transform="matrix(-0.64290693,0,0,0.64177688,542.93169,167.20907)"
       inkscape:connector-curvature="0" />
    <path
       id="path4021"
       d="m 598.038,690.398 c 0,0 -18.36877,99.01699 -112.04949,117.35348"
       style="fill:none;stroke:#000000;stroke-width:7.48071146;stroke-linecap:round;stroke-linejoin:miter;stroke-miterlimit:4;stroke-dasharray:none;stroke-opacity:1"
       inkscape:connector-curvature="0" />
    <path
       id="path4027"
       d="m 585.17987,851.75904 c 0,0 -25.71628,-18.33653 -60.61695,-20.17015"
       style="fill:none;stroke:#000000;stroke-width:6.22557592;stroke-linecap:round;stroke-linejoin:miter;stroke-miterlimit:4;stroke-dasharray:none;stroke-opacity:1"
       inkscape:connector-curvature="0" />
    <path
       style="fill:none;stroke:#000000;stroke-width:5.94950056;stroke-linecap:round;stroke-linejoin:miter;stroke-miterlimit:4;stroke-dasharray:none;stroke-opacity:1"
       d="m 510.27985,868.67307 c 0,0 -13.5973,-15.7503 -32.05079,-17.32529"
       id="path4029"
       inkscape:connector-curvature="0" />
    <path
       style="fill:#ccffaa;stroke:#000000;stroke-width:6.32504177;stroke-miterlimit:4;stroke-dasharray:none;stroke-opacity:1"
       d="m 542.9744,674.81203 c 0.3971,78.44347 -99.40517,142.10774 -165.31892,142.10774 -64.89318,0 -172.66642,-69.1652 -172.66642,-147.60869 0,-78.44348 107.77324,-136.6068 172.66642,-136.6068 64.89319,0 165.31892,63.66426 165.31892,142.10775 z"
       id="path3346"
       sodipodi:nodetypes="csssc"
       inkscape:connector-curvature="0" />
    <path
       sodipodi:nodetypes="csssc"
       id="path3351"
       d="m 494.40152,786.64793 c 0,105.73249 -135.12406,191.54436 -222.43863,191.54436 -87.31457,0 -232.324778,-93.22648 -232.324778,-198.95898 0,-105.73249 145.010208,-184.12976 232.324778,-184.12976 87.31457,0 222.43863,85.81188 222.43863,191.54438 z"
       style="opacity:0.78109454;fill:#55d400;stroke:none;filter:url(#filter3353-9)"
       transform="matrix(0.64290693,0,0,0.64177688,201.31531,167.20907)"
       inkscape:connector-curvature="0" />
    <path
       style="fill:none;stroke:#000000;stroke-width:6.1080265;stroke-linecap:round;stroke-linejoin:miter;stroke-miterlimit:4;stroke-dasharray:none;stroke-opacity:1"
       d="m 283.62604,638.78553 c -0.44657,-4.94186 90.39486,125.53898 181.30952,-1.22291"
       id="path3349"
       sodipodi:nodetypes="cc"
       inkscape:connector-curvature="0" />
    <ellipse
       style="fill:#000000;fill-opacity:1;stroke:none;stroke-width:0.64234167"
       id="path4263"
       cx="368.30328"
       cy="613.11755"
       rx="7.8067274"
       ry="4.1257086" />
    <ellipse
       id="path4265"
       style="fill:#000000;fill-opacity:1;stroke:none;stroke-width:0.64234167"
       cx="394.84814"
       cy="615.07605"
       rx="7.8067274"
       ry="4.1257086" />
    <path
       sodipodi:nodetypes="cssscscssssc"
       id="path8700"
       d="m 295.27304,855.05952 c 2.83346,14.64211 -24.69184,21.10052 -30.82394,27.08766 -6.13213,5.987 -9.51177,13.99081 -3.93563,21.31925 21.44667,28.18628 23.64602,-9.96494 32.94817,-18.72375 11.98355,-11.28362 17.75062,2.86909 13.30946,10.42645 0,0 -29.69894,30.52069 -5.81036,38.36335 23.8886,7.84272 24.59949,-52.34715 24.59949,-52.34715 2.48565,-3.70291 11.10804,-9.7124 11.49981,0.43735 0.46205,11.97031 -6.71966,34.81476 11.08611,37.68814 9.08619,1.46625 20.25173,-10.00165 18.51132,-17.76977 -1.74039,-7.76826 -9.72859,-17.78238 -18.20251,-25.11919 -7.09693,-6.14467 -6.65655,-5.9397 -9.90295,-15.89307"
       style="fill:#bdf995;fill-opacity:1;stroke:none;stroke-width:0.70080143"
       inkscape:connector-curvature="0" />
    <path
       style="fill:#bdfa93;fill-opacity:1;stroke:none;stroke-width:0.70080143"
       d="m 271.53463,748.11157 c -2.10111,2.30487 -2.05,-1.19207 0.28858,2.8592 7.08406,18.69429 8.36658,15.97076 13.02364,36.46309 0.39057,31.76222 5.85387,56.84334 5.85387,56.84334 l 4.45091,12.58871 c 0,0 22.63524,36.72427 40.79029,27.8598 18.15507,-8.86448 2.37154,-33.02482 0.86782,-67.84255 -0.43987,-10.18461 3.60449,-29.26033 4.85077,-45.91569 0.62312,-8.32769 -2.14454,-10.70713 -4.48643,-16.67251"
       id="path4355"
       sodipodi:nodetypes="cccccssss"
       inkscape:connector-curvature="0" />
    <path
       style="fill:#b9f88f;fill-opacity:1;stroke:#000000;stroke-width:5.55818224;stroke-linecap:round;stroke-linejoin:miter;stroke-miterlimit:4;stroke-dasharray:none;stroke-opacity:1"
       d="m 341.89711,866.78014 c -2.08302,-11.58766 -2.07735,-25.77106 -2.82922,-43.17996 -0.43985,-10.18461 -0.0673,-29.55958 1.17897,-46.21495 0.62313,-8.32768 0.32818,-16.13755 -2.01371,-22.10292 m -66.59966,2.28077 c 9.55678,16.22591 7.48896,15.74825 9.97183,34.61983 -1.56967,23.52919 11.88539,68.8466 11.88539,68.8466"
       id="path4357"
       sodipodi:nodetypes="csssccc"
       inkscape:connector-curvature="0" />
    <path
       transform="matrix(0.529201,0,0,0.52827077,208.23447,282.09716)"
       sodipodi:nodetypes="cssccsccscc"
       id="path4359"
       d="m 217.35774,1087.6259 c 0,0 -30.98553,-1.1375 -58.48158,21.4513 -25.02363,20.5577 -68.842343,43.4946 -54.21111,70.6237 15.61185,28.9474 78.46836,-44.7906 78.46836,-44.7906 l -15.26235,59.2745 c 0,0 -32.05283,30.1674 7.54185,43.3655 39.59466,13.1983 50.90742,-104.8263 50.90742,-104.8263 l 12.84621,58.5416 c 0,0 41.33519,25.7884 68.25098,-10.9874 16.2524,-22.2061 -71.62522,-84.5277 -71.62522,-84.5277 z"
       style="fill:#6fdd25;fill-opacity:1;stroke:none;filter:url(#filter4070-8)"
       inkscape:connector-curvature="0" />
    <path
       sodipodi:nodetypes="cssscscssssc"
       id="path4361"
       d="m 294.98356,862.41857 c -10.82321,4.13779 -26.34295,12.01811 -32.96354,18.56962 -6.62058,6.55145 -9.57178,14.35776 -3.55148,22.37703 23.15507,30.8434 26.06781,-5.79743 36.11092,-15.38192 12.93814,-12.34734 13.93634,0.36575 9.14141,8.63562 0,0 -30.06319,28.7844 -4.27171,37.36644 25.79147,8.58203 26.7314,-50.56471 26.7314,-50.56471 2.68362,-4.05199 9.65834,-5.81829 10.08133,5.28824 0.49886,13.09874 -8.95392,30.10229 10.27021,33.24655 9.80997,1.6045 24.14783,-11.57958 22.2688,-20.08003 -1.87904,-8.50054 -10.50357,-16.88472 -19.65248,-24.91315 -7.66226,-6.72391 -4.79251,-6.45897 -8.29752,-17.35063"
       style="fill:none;stroke:#000000;stroke-width:5.55818224;stroke-linecap:round;stroke-linejoin:miter;stroke-miterlimit:4;stroke-dasharray:none;stroke-opacity:1"
       inkscape:connector-curvature="0" />
    <path
       transform="matrix(-0.67800081,0,0,0.67470246,555.18823,130.19214)"
       sodipodi:nodetypes="cccccssss"
       id="path4363"
       d="m 403.24814,895.63942 c 2.32226,3.38944 19.3707,11.46061 16.78597,17.41824 1.10797,14.34917 -28.5061,20.12191 -28.02025,50.25709 1.73488,34.60119 -10.92329,101.38895 -10.92329,101.38895 l 2.0631,5.1739 c 0,0 -7.60801,55.5805 -41.22024,39.6876 -21.50516,-10.1682 -17.65253,-33.6227 -10.57202,-93.3957 1.76147,-14.8702 -3.8534,-33.68557 -5.23086,-58.17827 -0.6887,-12.24636 -3.07197,-42.30267 -0.48359,-51.07511"
       style="fill:#71dd27;fill-opacity:1;stroke:none;filter:url(#filter4170-2)"
       inkscape:connector-curvature="0" />
    <path
       style="fill:#71dd27;fill-opacity:1;stroke:none;filter:url(#filter4234-5)"
       d="m 144.02451,1070.4729 c 4.29737,22.5315 -37.44888,32.4698 -46.749145,41.6829 -9.300282,9.2129 -10.263803,19.1161 -1.806764,30.3932 32.527109,43.3735 28.132959,-13.5243 42.241039,-27.0025 18.17487,-17.3634 22.7593,8.0348 16.0236,19.6642 0,0 -33.74549,31.8834 2.48514,43.9518 36.23065,12.0685 24.82222,-67.8835 24.82222,-67.8835 3.76984,-5.6981 25.76599,-15.5489 26.36018,0.07 0.70078,18.4201 -10.19138,53.5735 16.81375,57.9951 13.78058,2.2563 23.57958,-14.7874 20.94,-26.7411 -2.63957,-11.9539 -14.75489,-23.7441 -27.60684,-35.0341 -10.76358,-9.4555 -7.71726,-14.5697 -12.64092,-29.8861"
       id="path4365"
       sodipodi:nodetypes="cssscscssssc"
       transform="matrix(0.65934777,0,0,0.64985046,200.3108,159.41221)"
       inkscape:connector-curvature="0" />
    <path
       style="fill:none;stroke:#000000;stroke-width:5.55818224;stroke-linecap:round;stroke-linejoin:miter;stroke-miterlimit:4;stroke-dasharray:none;stroke-opacity:1"
       d="m 292.37089,862.10936 c -10.11724,7.66147 -23.66753,12.6405 -30.35087,18.87883 -6.80925,6.35584 -9.57178,14.35776 -3.55148,22.37703 23.15507,30.8434 26.06781,-5.79743 36.11092,-15.38192 12.93814,-12.34734 13.93634,0.36575 9.14141,8.63562 0,0 -30.06319,28.7844 -4.27171,37.36644 25.79147,8.58203 26.26861,-39.5293 26.7314,-50.56471 0.20351,-4.85325 9.65834,-5.81829 10.08133,5.28824 0.49886,13.09874 -8.95392,30.10229 10.27021,33.24655 9.80997,1.6045 24.14783,-11.57958 22.2688,-20.08003 -1.87904,-8.50054 -11.92326,-15.51009 -19.65248,-24.91315 -6.49375,-7.90002 -8.16029,-6.45897 -8.29752,-17.35063"
       id="path4367"
       sodipodi:nodetypes="cssscssssssc"
       inkscape:connector-curvature="0" />
    <path
       sodipodi:nodetypes="csssccc"
       id="path4369"
       d="m 341.9063,866.78933 c -2.08355,-11.50807 -2.07789,-25.59407 -2.82996,-42.88342 -0.43997,-10.11467 -0.0673,-29.35658 1.17927,-45.89756 0.6233,-8.2705 0.32828,-16.02673 -2.01423,-21.95114 m -66.12253,0.30397 c 9.08434,21.8543 7.6358,19.96853 9.97445,34.3821 -1.57008,23.3676 11.39385,70.33491 11.39385,70.33491"
       style="fill:#b9f88f;fill-opacity:1;stroke:#000000;stroke-width:5.53979397;stroke-linecap:round;stroke-linejoin:miter;stroke-miterlimit:4;stroke-dasharray:none;stroke-opacity:1"
       inkscape:connector-curvature="0" />
    <ellipse
       id="path3324"
       style="fill:url(#radialGradient3293);fill-opacity:1;stroke:#000000;stroke-width:3.70990229;stroke-miterlimit:4;stroke-dasharray:none;stroke-opacity:1"
       cx="419.20923"
       cy="525.61932"
       rx="38.574417"
       ry="38.506615" />
    <ellipse
       id="path3328"
       style="fill:#000000;stroke:none;stroke-width:0.64234167"
       cx="414.61703"
       cy="542.85559"
       rx="16.531893"
       ry="16.502834" />
    <ellipse
       style="fill:url(#radialGradient3295);fill-opacity:1;stroke:#000000;stroke-width:3.482301;stroke-miterlimit:4;stroke-dasharray:none;stroke-opacity:1"
       id="path3322"
       cx="340.22351"
       cy="523.78564"
       rx="38.574417"
       ry="38.506615" />
    <ellipse
       style="fill:#000000;stroke:none;stroke-width:0.64234167"
       id="path3326"
       cx="340.22351"
       cy="540.28851"
       rx="16.531893"
       ry="16.502834" />
    <path
       style="fill:#bdf995;fill-opacity:1;stroke:none;stroke-width:0.70080143"
       d="m 450.20707,855.05952 c -2.83346,14.64211 24.69184,21.10052 30.82394,27.08766 6.13212,5.987 9.51176,13.99081 3.93563,21.31925 -21.44668,28.18628 -23.64603,-9.96494 -32.94817,-18.72375 -11.98356,-11.28362 -17.75063,2.86909 -13.30946,10.42645 0,0 29.69894,30.52069 5.81035,38.36335 -23.8886,7.84272 -24.59949,-52.34715 -24.59949,-52.34715 -2.48565,-3.70291 -11.10803,-9.7124 -11.4998,0.43735 -0.46206,11.97031 6.71966,34.81476 -11.08611,37.68814 -9.0862,1.46625 -20.25173,-10.00165 -18.51132,-17.76977 1.74038,-7.76826 9.72859,-17.78238 18.2025,-25.11919 7.09694,-6.14467 6.65656,-5.9397 9.90296,-15.89307"
       id="path8741"
       sodipodi:nodetypes="cssscscssssc"
       inkscape:connector-curvature="0" />
    <path
       sodipodi:nodetypes="cccccssss"
       id="path8747"
       d="m 473.94548,748.11157 c 2.10111,2.30487 2.05,-1.19207 -0.28858,2.8592 -7.08407,18.69429 -8.36659,15.97076 -13.02364,36.46309 -0.39058,31.76222 -5.85388,56.84334 -5.85388,56.84334 l -4.4509,12.58871 c 0,0 -22.63524,36.72427 -40.7903,27.8598 -18.15506,-8.86448 -2.37154,-33.02482 -0.86781,-67.84255 0.43987,-10.18461 -3.6045,-29.26033 -4.85077,-45.91569 -0.62313,-8.32769 2.14454,-10.70713 4.48643,-16.67251"
       style="fill:#bdfa93;fill-opacity:1;stroke:none;stroke-width:0.70080143"
       inkscape:connector-curvature="0" />
    <path
       sodipodi:nodetypes="csssccc"
       id="path8749"
       d="m 403.583,866.78014 c 2.08301,-11.58766 2.07735,-25.77106 2.82922,-43.17996 0.43985,-10.18461 0.0673,-29.55958 -1.17897,-46.21495 -0.62314,-8.32768 -0.32819,-16.13755 2.0137,-22.10292 m 66.59966,2.28077 c -9.55678,16.22591 -7.48895,15.74825 -9.97182,34.61983 1.56967,23.52919 -11.88539,68.8466 -11.88539,68.8466"
       style="fill:#b9f88f;fill-opacity:1;stroke:#000000;stroke-width:5.55818224;stroke-linecap:round;stroke-linejoin:miter;stroke-miterlimit:4;stroke-dasharray:none;stroke-opacity:1"
       inkscape:connector-curvature="0" />
    <path
       style="fill:#6fdd25;fill-opacity:1;stroke:none;filter:url(#filter4070-8)"
       d="m 217.35774,1087.6259 c 0,0 -30.98553,-1.1375 -58.48158,21.4513 -25.02363,20.5577 -68.842343,43.4946 -54.21111,70.6237 15.61185,28.9474 78.46836,-44.7906 78.46836,-44.7906 l -15.26235,59.2745 c 0,0 -32.05283,30.1674 7.54185,43.3655 39.59466,13.1983 50.90742,-104.8263 50.90742,-104.8263 l 12.84621,58.5416 c 0,0 41.33519,25.7884 68.25098,-10.9874 16.2524,-22.2061 -71.62522,-84.5277 -71.62522,-84.5277 z"
       id="path8751"
       sodipodi:nodetypes="cssccsccscc"
       transform="matrix(-0.529201,0,0,0.52827077,537.24564,282.09716)"
       inkscape:connector-curvature="0" />
    <path
       style="fill:none;stroke:#000000;stroke-width:5.55818224;stroke-linecap:round;stroke-linejoin:miter;stroke-miterlimit:4;stroke-dasharray:none;stroke-opacity:1"
       d="m 450.49654,862.41857 c 10.82322,4.13779 26.34296,12.01811 32.96354,18.56962 6.62058,6.55145 9.57179,14.35776 3.55148,22.37703 -23.15506,30.8434 -26.06781,-5.79743 -36.11091,-15.38192 -12.93815,-12.34734 -13.93635,0.36575 -9.14141,8.63562 0,0 30.06319,28.7844 4.27171,37.36644 -25.79147,8.58203 -26.7314,-50.56471 -26.7314,-50.56471 -2.68362,-4.05199 -9.65834,-5.81829 -10.08133,5.28824 -0.49886,13.09874 8.95391,30.10229 -10.27022,33.24655 -9.80997,1.6045 -24.14782,-11.57958 -22.26879,-20.08003 1.87903,-8.50054 10.50357,-16.88472 19.65248,-24.91315 7.66226,-6.72391 4.7925,-6.45897 8.29751,-17.35063"
       id="path8753"
       sodipodi:nodetypes="cssscscssssc"
       inkscape:connector-curvature="0" />
    <path
       style="fill:#71dd27;fill-opacity:1;stroke:none;filter:url(#filter4170-2)"
       d="m 403.24814,895.63942 c 2.32226,3.38944 19.3707,11.46061 16.78597,17.41824 1.10797,14.34917 -28.5061,20.12191 -28.02025,50.25709 1.73488,34.60119 -10.92329,101.38895 -10.92329,101.38895 l 2.0631,5.1739 c 0,0 -7.60801,55.5805 -41.22024,39.6876 -21.50516,-10.1682 -17.65253,-33.6227 -10.57202,-93.3957 1.76147,-14.8702 -3.8534,-33.68557 -5.23086,-58.17827 -0.6887,-12.24636 -3.07197,-42.30267 -0.48359,-51.07511"
       id="path8755"
       sodipodi:nodetypes="cccccssss"
       transform="matrix(0.67800081,0,0,0.67470246,190.29188,130.19214)"
       inkscape:connector-curvature="0" />
    <path
       transform="matrix(-0.65934777,0,0,0.64985046,545.16931,159.41221)"
       sodipodi:nodetypes="cssscscssssc"
       id="path8757"
       d="m 144.02451,1070.4729 c 4.29737,22.5315 -37.44888,32.4698 -46.749145,41.6829 -9.300282,9.2129 -10.263803,19.1161 -1.806764,30.3932 32.527109,43.3735 28.132959,-13.5243 42.241039,-27.0025 18.17487,-17.3634 22.7593,8.0348 16.0236,19.6642 0,0 -33.74549,31.8834 2.48514,43.9518 36.23065,12.0685 24.82222,-67.8835 24.82222,-67.8835 3.76984,-5.6981 25.76599,-15.5489 26.36018,0.07 0.70078,18.4201 -10.19138,53.5735 16.81375,57.9951 13.78058,2.2563 23.57958,-14.7874 20.94,-26.7411 -2.63957,-11.9539 -14.75489,-23.7441 -27.60684,-35.0341 -10.76358,-9.4555 -7.71726,-14.5697 -12.64092,-29.8861"
       style="fill:#71dd27;fill-opacity:1;stroke:none;filter:url(#filter4234-5)"
       inkscape:connector-curvature="0" />
    <path
       sodipodi:nodetypes="cssscssssssc"
       id="path8759"
       d="m 453.10922,862.10936 c 10.11723,7.66147 23.66752,12.6405 30.35086,18.87883 6.80925,6.35584 9.57179,14.35776 3.55148,22.37703 -23.15506,30.8434 -26.06781,-5.79743 -36.11091,-15.38192 -12.93815,-12.34734 -13.93635,0.36575 -9.14141,8.63562 0,0 30.06319,28.7844 4.27171,37.36644 -25.79147,8.58203 -26.26861,-39.5293 -26.7314,-50.56471 -0.20352,-4.85325 -9.65834,-5.81829 -10.08133,5.28824 -0.49886,13.09874 8.95391,30.10229 -10.27022,33.24655 -9.80997,1.6045 -24.14782,-11.57958 -22.26879,-20.08003 1.87903,-8.50054 11.92326,-15.51009 19.65248,-24.91315 6.49375,-7.90002 8.16029,-6.45897 8.29751,-17.35063"
       style="fill:none;stroke:#000000;stroke-width:5.55818224;stroke-linecap:round;stroke-linejoin:miter;stroke-miterlimit:4;stroke-dasharray:none;stroke-opacity:1"
       inkscape:connector-curvature="0" />
    <path
       style="fill:#b9f88f;fill-opacity:1;stroke:#000000;stroke-width:5.53979397;stroke-linecap:round;stroke-linejoin:miter;stroke-miterlimit:4;stroke-dasharray:none;stroke-opacity:1"
       d="m 403.57381,866.78933 c 2.08355,-11.50807 2.07788,-25.59407 2.82996,-42.88342 0.43997,-10.11467 0.0673,-29.35658 -1.17927,-45.89756 -0.62331,-8.2705 -0.32829,-16.02673 2.01423,-21.95114 m 66.12253,0.30397 c -9.08434,21.8543 -7.6358,19.96853 -9.97446,34.3821 1.57009,23.3676 -11.39385,70.33491 -11.39385,70.33491"
       id="path8761"
       sodipodi:nodetypes="csssccc"
       inkscape:connector-curvature="0" />
    <path
       inkscape:connector-curvature="0"
       id="path1195"
       d="m 500.8562,513.28606 c 4.05242,24.01992 6.96425,51.31816 -6.73556,73.13285 -18.77917,30.01118 -60.73366,32.78039 -84.8777,7.91241 -8.61902,-8.81673 -13.47112,-18.19883 -24.37272,-24.86798 -0.74146,-0.45286 -1.54114,-0.50912 -2.16896,-0.22643 -6.62193,-0.17018 -11.92998,6.89558 -15.29776,11.81236 -5.02255,7.46095 -8.90452,15.14693 -14.55489,22.04111 -0.11363,0.0563 -0.22868,0.0563 -0.34232,0.17017 -15.06907,11.02056 -39.61366,9.7773 -57.65138,8.47779 -31.62247,-2.20383 -36.13226,-24.92424 -42.80958,-48.60521 0.34232,-23.73724 -1.65477,-50.01724 10.33202,-71.49439 15.18271,-27.12806 42.18176,-34.36259 71.29296,-35.77602 39.15629,-1.92115 87.10348,-4.63409 125.28964,4.57783 28.36832,6.78448 37.27284,25.3785 41.89625,52.84551 z m -12.95693,52.73019 c 11.64448,-25.65838 6.50688,-48.83024 -6.67874,-73.81214 -0.45595,-0.84806 -1.14201,-1.187 -1.88346,-1.24325 -18.26498,-28.71027 -57.59315,-25.37569 -87.78953,-24.81173 -31.84974,0.62304 -79.33955,-1.97599 -106.16815,18.93438 -21.9765,17.12433 -21.4055,50.58261 -18.49367,75.61936 3.19591,27.63718 14.32762,42.61394 40.81249,41.37068 11.13029,1.07449 21.97508,-2.09132 31.85115,-8.36386 15.58326,-9.89122 26.19937,-34.13616 47.31937,-31.47947 0.0568,0 0.11363,0 0.17186,0 23.11709,6.66915 34.07693,33.34435 59.9908,34.87171 19.4638,1.13074 35.90357,-10.73787 41.78262,-28.82419 0.28408,-0.96198 -0.17329,-1.75237 -0.91474,-2.26149 z m -2.56809,-80.53614 c 0.74145,1.29952 2.73996,0.17018 1.99851,-1.13074 -1.65477,-2.82546 -3.36778,-5.65233 -5.1376,-8.42153 -0.68464,-1.13075 -2.39765,-0.11251 -1.76983,1.01683 1.59796,2.88312 3.19591,5.70858 4.90892,8.53544 z m -6.96424,-3.61726 c 0.45595,0.90432 1.99708,0.28269 1.71158,-0.73414 -1.31245,-4.12498 -4.33791,-6.95184 -8.50538,-8.30761 -0.91332,-0.33894 -1.54114,1.13074 -0.62782,1.52594 3.3692,1.46829 5.88048,4.12498 7.42162,7.51581 z M 466.89433,602.4139 c 1.19882,-0.7918 0.11363,-2.65669 -1.08519,-1.92114 -2.16896,1.35577 -4.39473,2.26008 -6.84919,2.82546 -1.14201,0.28268 -0.91332,2.14757 0.2855,2.03506 2.85359,-0.39661 5.30805,-1.24467 7.64888,-2.93938 z M 317.57286,465.64142 c 1.31245,-0.22643 1.02695,-2.43026 -0.34232,-2.374 -3.88196,0.28268 -7.47701,1.24326 -11.07347,2.71294 -1.37069,0.56538 -0.79969,2.82546 0.62782,2.26009 3.48141,-1.24185 7.07787,-2.03365 10.78797,-2.59903 z m -55.65288,46.00619 c 0.62782,-1.41344 -1.37069,-2.6567 -2.16895,-1.24326 -1.82664,3.50475 -3.4246,7.00809 -5.07937,10.5691 -0.62782,1.41343 1.37069,2.60043 2.11214,1.24326 1.7684,-3.50475 3.53823,-6.95325 5.13618,-10.5691 z m -0.34231,8.08117 c 0.22868,-0.90431 -1.08519,-1.24325 -1.42751,-0.39519 -1.65477,4.63409 -2.28259,9.43835 -2.22577,14.29887 0.0568,1.01683 1.54113,1.01683 1.59795,0 0.0568,-4.69175 0.8565,-9.32584 2.05533,-13.90368 z"
       style="fill:#607ee3;fill-opacity:1;stroke-width:1.41338539" />
    <path
       inkscape:connector-curvature="0"
       id="path1197"
       d="m 490.46736,532.10652 c 0.79969,12.9417 -4.2811,25.03675 -7.07787,37.41448 -6.73556,12.43399 -17.4099,22.43772 -32.87811,22.88917 -16.61021,0.50912 -27.34137,-10.90804 -38.35803,-20.91177 -7.53525,-6.78167 -14.66994,-11.69844 -24.03041,-12.77293 -0.22868,-0.17018 -0.45595,-0.33895 -0.68463,-0.3952 -11.53085,-4.29515 -20.71945,1.86489 -28.65383,10.05998 -15.52644,16.16377 -29.05438,28.25881 -50.74396,30.01119 -37.04557,-5.25572 -39.32816,-37.41448 -37.1592,-67.53818 2.91183,-40.18368 28.19787,-51.71336 65.01334,-55.83833 38.87222,-4.35141 114.67353,-16.55896 140.18826,19.66851 0.34232,0.45146 0.79969,0.73415 1.25564,0.90432 5.99411,11.52827 12.27372,23.33922 13.1288,36.50876 z m -31.10828,9.88981 c 1.31245,1.5822 4.10923,-0.50912 2.85359,-2.20383 -5.4231,-7.4033 -11.64448,-14.24262 -18.09453,-20.85411 -1.65477,-1.69472 -4.2811,0.84806 -2.62491,2.60043 6.22137,6.61149 11.98679,13.56333 17.86585,20.45751 z m -6.50687,32.55396 c 1.25563,1.46969 3.25414,-0.62163 2.11214,-2.09132 -19.23512,-24.07617 -40.0128,-46.90909 -61.58875,-68.95161 -1.02695,-0.96057 -2.51128,0.50911 -1.59796,1.5822 20.83308,22.72181 40.98294,46.06244 61.07457,69.46073 z m -80.48298,-31.93233 c 1.14201,1.41343 3.7101,-0.50912 2.62633,-1.97881 -9.4187,-12.60276 -19.74931,-25.26318 -31.33697,-35.94479 -0.91332,-0.84806 -2.05532,0.3952 -1.31245,1.29951 9.7596,12.37914 20.20526,24.24776 30.02309,36.62409 z m -31.62247,26.39392 c 1.54114,1.63846 3.88197,-0.7918 2.39765,-2.43026 -13.58475,-15.42962 -27.57006,-30.57656 -41.15481,-46.06103 -1.19882,-1.41343 -3.08228,0.56537 -1.94027,1.92114 13.07056,15.88108 26.42805,31.64965 40.69743,46.57015 z m -26.77036,10.9643 c 1.37069,1.18701 3.19591,-0.62163 1.99708,-1.9774 -8.79088,-9.60853 -18.09453,-18.87671 -27.1695,-28.20255 -1.02695,-1.01683 -2.51127,0.50911 -1.59795,1.5822 8.10625,10.05998 17.06758,20.06371 26.77037,28.59775 z m -14.26939,7.34704 c 0.91332,0.45146 1.71301,-0.90431 0.79969,-1.35718 -1.88346,-0.90431 -3.82373,-1.86488 -5.70861,-2.7692 -0.8565,-0.3952 -1.59795,0.84806 -0.79969,1.24326 z m -7.02106,2.48652 c 1.25564,0.3952 1.99851,-1.46969 0.8565,-2.09132 -1.48432,-0.7918 -2.96864,-1.63846 -4.33791,-2.65669 -0.22869,-0.22643 -3.53823,-3.10815 -3.76692,-3.56101 0.17045,-0.17017 0.22869,-0.3952 0.22869,-0.67788 -0.0568,-0.0563 -0.0568,-0.11252 -0.0568,-0.22643 -0.11363,-0.50912 -0.79968,-0.67789 -1.19882,-0.45287 -2.05532,1.01683 -0.45595,3.05189 0.51419,4.2389 2.05248,2.54558 4.622,4.41047 7.76109,5.4273 z"
       style="fill:#99d9f1;fill-opacity:0.75;stroke-width:1.41338539" />
    <path
       inkscape:connector-curvature="0"
       id="path1199"
       d="m 481.22053,492.20552 c 13.18562,24.98049 18.32322,48.15235 6.67874,73.81213 0.74145,0.50912 1.19882,1.29952 0.91332,2.26009 -5.87905,18.08491 -22.31882,29.95353 -41.78262,28.82419 -25.91387,-1.52595 -36.87371,-28.20256 -59.9908,-34.87171 -0.0568,0 -0.11363,0 -0.17187,0 -21.11999,-2.65669 -31.7361,21.58966 -47.31936,31.47947 -9.87465,6.27395 -20.71944,9.43835 -31.85115,8.36386 -26.48487,1.24326 -37.61516,-13.7335 -40.81249,-41.37068 -2.91041,-25.03675 -3.48141,-58.49503 18.49367,-75.61936 26.82718,-20.91178 74.31841,-18.31134 106.16815,-18.93297 30.19496,-0.56537 69.52313,-3.89995 87.78953,24.81172 0.74429,0.0563 1.42893,0.3952 1.88488,1.24326 z m 2.16896,77.31548 c 2.79677,-12.37773 7.87756,-24.47137 7.07787,-37.41448 -0.8565,-13.16813 -7.13469,-24.98049 -13.1288,-36.51017 -0.45737,-0.16876 -0.91332,-0.45145 -1.25564,-0.90431 -25.51473,-36.22748 -101.31604,-24.01992 -140.18826,-19.66852 -36.81689,4.12498 -62.10293,15.65465 -65.01334,55.83833 -2.16896,30.1237 0.11363,62.28246 37.1592,67.53818 21.69101,-1.75237 35.21894,-13.84742 50.74396,-30.01118 7.93438,-8.1951 17.1244,-14.35514 28.65383,-10.05999 0.22868,0.0563 0.45737,0.22643 0.68463,0.3952 9.36047,1.07449 16.49658,5.99127 24.03041,12.77293 11.01666,10.00373 21.74782,21.41949 38.35803,20.91178 15.46963,-0.45146 26.14255,-10.45378 32.87811,-22.88777 z"
       style="fill:#1d1d1b;stroke-width:1.41338539" />
    <path
       inkscape:connector-curvature="0"
       id="path1201"
       d="m 487.32827,484.34937 c 0.74145,1.29951 -1.25564,2.43026 -1.99851,1.13074 -1.71301,-2.82546 -3.31096,-5.65232 -4.90892,-8.53404 -0.62782,-1.13074 1.08519,-2.14757 1.76983,-1.01683 1.76982,2.7678 3.48283,5.59467 5.1376,8.42013 z"
       style="fill:#1d1d1b;stroke-width:1.41338539" />
    <path
       inkscape:connector-curvature="0"
       id="path1203"
       d="m 480.07994,481.1273 c 0.2855,1.01683 -1.25563,1.63846 -1.71158,0.73414 -1.54114,-3.39083 -4.05242,-6.04752 -7.4202,-7.51721 -0.91332,-0.3952 -0.2855,-1.86489 0.62782,-1.52594 4.16463,1.35717 7.19009,4.18404 8.50396,8.30901 z"
       style="fill:#1d1d1b;stroke-width:1.41338539" />
    <path
       inkscape:connector-curvature="0"
       id="path1207"
       d="m 465.80914,600.49135 c 1.19882,-0.73555 2.28259,1.13075 1.08519,1.92115 -2.34083,1.69471 -4.79529,2.54277 -7.64888,2.93937 -1.19882,0.11251 -1.42751,-1.75237 -0.2855,-2.03506 2.45446,-0.56397 4.68023,-1.46828 6.84919,-2.82546 z"
       style="fill:#1d1d1b;stroke-width:1.41338539" />
    <path
       inkscape:connector-curvature="0"
       id="path1209"
       d="m 462.21267,539.7925 c 1.25564,1.69612 -1.54114,3.78603 -2.85359,2.20383 -5.87906,-6.89558 -11.64448,-13.84602 -17.86585,-20.45891 -1.65477,-1.75238 0.97014,-4.29515 2.62491,-2.60044 6.45148,6.6129 12.67285,13.45222 18.09453,20.85552 z"
       style="fill:#1d1d1b;stroke-width:1.41338539" />
    <path
       inkscape:connector-curvature="0"
       id="path1211"
       d="m 454.96435,572.45897 c 1.142,1.46969 -0.85651,3.56101 -2.11214,2.09132 -20.09163,-23.39829 -40.24149,-46.74033 -61.07599,-69.45932 -0.91332,-1.0745 0.57101,-2.54278 1.59796,-1.58221 21.57737,22.04112 42.35363,44.87404 61.59017,68.95021 z"
       style="fill:#1d1d1b;stroke-width:1.41338539" />
    <path
       inkscape:connector-curvature="0"
       id="path1217"
       d="m 408.90062,610.04363 c 0.74145,0.50911 0.0568,1.69612 -0.68463,1.24325 -3.93878,-2.54277 -7.47701,-5.42589 -10.84479,-8.64655 -0.57101,-0.56537 0.34232,-1.46969 0.97013,-0.90431 3.25273,3.05189 6.79238,5.82109 10.55929,8.30761 z"
       style="fill:#1d1d1b;stroke-width:1.41338539" />
    <path
       inkscape:connector-curvature="0"
       id="path1219"
       d="m 408.21599,603.71342 c 0.97013,0.56537 0.11363,1.92114 -0.85651,1.46968 -2.85359,-1.24325 -4.96573,-3.561 -6.50687,-6.21769 -0.39913,-0.67789 0.62782,-1.24326 1.08377,-0.62163 1.71301,2.374 3.76833,3.89995 6.27961,5.36964 z"
       style="fill:#1d1d1b;stroke-width:1.41338539" />
    <path
       inkscape:connector-curvature="0"
       id="path1221"
       d="m 380.73154,556.93887 c 17.63717,12.91369 25.51473,33.1987 41.78263,44.15221 -13.29925,16.09206 -28.08282,34.48417 -49.03237,31.30581 -14.21257,-2.23109 -26.25618,-14.06456 -35.33257,-26.84366 4.68024,-1.69097 8.90452,-4.05666 12.38593,-7.23502 0.11363,-0.0674 0.2855,0 0.39913,-0.0674 14.09894,-9.12791 15.46821,-32.9278 29.51033,-41.65022 0.11506,0.1346 0.17329,0.27089 0.28692,0.33819 z m 26.08574,44.49039 c 0.74145,0.5418 1.4275,-0.87829 0.68463,-1.48737 -3.76691,-2.97478 -7.30656,-6.28775 -10.55929,-9.93892 -0.62781,-0.6764 -1.54114,0.4055 -0.97013,1.08188 3.36636,3.85308 6.90601,7.30234 10.84479,10.34441 z m -0.85651,-7.30233 c 0.97014,0.5418 1.82664,-1.08188 0.85651,-1.75827 -2.51128,-1.75828 -4.5666,-3.58387 -6.27961,-6.42404 -0.45595,-0.74369 -1.48432,-0.0673 -1.08377,0.7437 1.54114,3.17836 3.65328,5.95123 6.50687,7.43861 z"
       style="fill:#607ee3;fill-opacity:0.88395059;stroke-width:1.5459379" />
    <path
       inkscape:connector-curvature="0"
       id="path1223"
       d="m 374.99556,540.64056 c 1.08377,1.46969 -1.48432,3.39083 -2.62633,1.9788 -9.81783,-12.37773 -20.26349,-24.24635 -30.02451,-36.62267 -0.74145,-0.90432 0.39913,-2.14758 1.31245,-1.29952 11.58908,10.68021 21.91969,23.33922 31.33839,35.94339 z"
       style="fill:#1d1d1b;stroke-width:1.41338539" />
    <path
       inkscape:connector-curvature="0"
       id="path1225"
       d="m 343.14441,566.58162 c 1.48432,1.63846 -0.85651,4.06872 -2.39765,2.43026 -14.26938,-14.9205 -27.62687,-30.68907 -40.69743,-46.57015 -1.14201,-1.35577 0.74145,-3.33457 1.94027,-1.92114 13.58475,15.48588 27.57006,30.63141 41.15481,46.06103 z"
       style="fill:#1d1d1b;stroke-width:1.41338539" />
    <path
       inkscape:connector-curvature="0"
       id="path1227"
       d="m 317.23054,463.26882 c 1.37069,-0.0562 1.65477,2.14758 0.34232,2.37401 -3.7101,0.56537 -7.30656,1.35718 -10.78797,2.60043 -1.42751,0.56538 -1.99851,-1.69612 -0.62782,-2.26008 3.59646,-1.4711 7.19151,-2.43167 11.07347,-2.71436 z"
       style="fill:#1d1d1b;stroke-width:1.41338539" />
    <path
       inkscape:connector-curvature="0"
       id="path1229"
       d="m 315.97491,577.99878 c 1.19882,1.35577 -0.62782,3.16441 -1.99709,1.9774 -9.70421,-8.53404 -18.66554,-18.53777 -26.77037,-28.59775 -0.91332,-1.07309 0.571,-2.59903 1.59795,-1.5822 9.07497,9.32444 18.37862,18.59402 27.16951,28.20255 z"
       style="fill:#1d1d1b;stroke-width:1.41338539" />
    <path
       inkscape:connector-curvature="0"
       id="path1231"
       d="m 300.50528,585.96745 c 0.91332,0.45146 0.11363,1.80863 -0.79969,1.35718 l -5.70861,-2.88312 c -0.79968,-0.3952 -0.0568,-1.63846 0.79969,-1.24326 1.88488,0.90431 3.82515,1.86488 5.70861,2.7692 z"
       style="fill:#1d1d1b;stroke-width:1.41338539" />
    <path
       inkscape:connector-curvature="0"
       id="path1233"
       d="m 293.54245,587.71842 c 1.14201,0.62163 0.39914,2.48652 -0.8565,2.09132 -3.13909,-1.01683 -5.70861,-2.88312 -7.76251,-5.4259 -0.97014,-1.187 -2.56809,-3.22065 -0.51419,-4.23889 0.39914,-0.22643 1.08519,-0.0563 1.19882,0.45286 0,0.11251 0,0.17018 0.0568,0.22643 0,0.28269 -0.0568,0.50912 -0.22869,0.67789 0.22869,0.45286 3.53965,3.33457 3.76692,3.561 1.37069,1.01683 2.85501,1.86489 4.33933,2.65529 z"
       style="fill:#1d1d1b;stroke-width:1.41338539" />
    <path
       inkscape:connector-curvature="0"
       id="path1235"
       d="m 259.75103,510.40294 c 0.79968,-1.41343 2.79677,-0.17017 2.16895,1.24326 -1.59795,3.61726 -3.36778,7.06435 -5.1376,10.5691 -0.74145,1.35718 -2.73996,0.17018 -2.11214,-1.24326 1.65619,-3.561 3.25415,-7.06435 5.08079,-10.5691 z"
       style="fill:#1d1d1b;stroke-width:1.41338539" />
    <path
       inkscape:connector-curvature="0"
       id="path1237"
       d="m 260.15016,519.33359 c 0.34232,-0.84806 1.65477,-0.50912 1.42751,0.39519 -1.19883,4.57784 -1.99709,9.21193 -2.05533,13.90368 -0.0568,1.01683 -1.54114,1.01683 -1.59795,0 -0.0568,-4.86052 0.571,-9.66478 2.22577,-14.29887 z"
       style="fill:#1d1d1b;stroke-width:1.41338539" />
    <path
       inkscape:connector-curvature="0"
       id="path1193"
       d="m 507.3861,533.41643 c 1.335,19.19191 -1.50258,40.09404 -15.2487,55.34406 -12.35434,13.79664 -32.27832,21.26611 -51.36585,18.82793 -5.00904,-0.67378 -9.2938,-1.8677 -13.13402,-3.47466 -0.0554,0.41561 -0.22297,0.82994 -0.6121,1.19264 -13.357,13.27905 -30.38523,28.42451 -51.7564,25.77851 -15.02573,-1.91931 -29.27317,-12.604 -37.00899,-24.53425 -17.08504,3.99353 -39.12233,1.97095 -52.31173,-0.46724 -23.26288,-4.25297 -32.22154,-25.31257 -32.72286,-45.80038 -0.11074,-0.15617 -0.27836,-0.31107 -0.33376,-0.62213 -4.78607,-47.8746 7.28991,-95.38778 65.22415,-103.53101 35.17131,-4.92801 74.295,-3.06033 109.68926,-1.29718 19.70102,1.03775 42.79635,2.64471 58.37879,15.30164 17.80792,14.47299 19.81044,42.68971 21.20221,63.28207 z m -15.2487,46.26633 c 13.35699,-20.02185 10.51802,-45.0737 6.56701,-67.11814 -4.50772,-25.20801 -13.18941,-42.27279 -40.84785,-48.498 -37.23058,-8.4543 -83.97793,-5.96448 -122.15437,-4.20133 -28.38272,1.29718 -54.70613,7.93542 -69.5089,32.83366 -11.68685,19.71079 -9.73835,43.82944 -10.07348,65.61443 6.51161,21.73337 10.90715,42.58516 41.7383,44.60774 17.58635,1.19264 41.51673,2.33364 56.20871,-7.78054 0.11074,-0.10327 0.22296,-0.10327 0.33376,-0.15617 5.50897,-6.32847 9.2938,-13.38233 14.19067,-20.22838 3.28349,-4.5124 8.45872,-10.99575 14.91494,-10.84087 0.61211,-0.25943 1.39178,-0.2078 2.11468,0.20781 10.6288,6.12066 15.35948,14.73114 23.76282,22.82274 23.54124,22.82146 64.44447,20.28001 82.75371,-7.26295 z m -68.45087,22.56331 c -15.86081,-8.40268 -23.54125,-23.96376 -40.73705,-33.87013 -0.11074,-0.0516 -0.1662,-0.15488 -0.27837,-0.25943 -13.69073,6.69115 -15.02573,24.94857 -28.77185,31.9508 -0.11075,0.0516 -0.27837,0 -0.38915,0.0516 -3.39429,2.43819 -7.51287,4.25296 -12.07598,5.55015 8.84787,9.80311 20.59148,18.88085 34.4484,20.59236 20.42392,2.43819 34.83755,-11.67082 47.804,-24.01538 z"
       style="fill:#1d1d1b;stroke-width:1.33696866" />
    <path
       inkscape:connector-curvature="0"
       id="path1171"
       d="m 486.88651,614.66114 c 0.241,33.836 1.527,68.838 -6.269,102.031 -0.121,0.563 -0.603,0.764 -1.125,0.804 -10.77,37.734 -71.973,42.878 -82.501,1.085 -14.587,-1.808 -25.598,-14.186 -27.567,-29.054 -0.121,-0.844 0.723,-1.165 1.447,-1.005 0.04,-0.402 0.281,-0.764 0.723,-0.844 2.451,-0.442 4.983,-0.643 7.434,-1.005 2.291,-0.322 4.661,-1.165 6.952,-0.964 0.522,0.04 0.844,0.321 1.085,0.683 3.175,-0.442 6.349,-0.844 9.444,-1.406 9.042,-1.728 18.043,-3.657 27.165,-5.144 0.563,-0.08 1.045,0.04 1.407,0.321 0.804,0.04 1.567,0.442 1.929,1.366 4.581,11.855 0.322,24.272 -8.801,31.385 5.546,5.787 12.819,11.373 21.258,10.931 9.323,-0.442 13.824,-9.162 16.356,-17.159 8.519,-66.266 4.38846,-225.11263 5.95546,-291.74063 0,-0.201 0.08,-0.362 0.161,-0.563 -0.362,0 -0.683,-0.201 -0.764,-0.683 -0.764,-5.586 6.229,-7.595 10.489,-8.76 6.189,-1.688 13.06,-1.447 17.762,3.376 0.884,0.924 0.643,2.009 -0.08,2.652 0.603,0.161 1.125,0.603 1.165,1.447 2.45,36.729 -3.86646,165.39563 -3.62546,202.24663 z m -5.505,-67.995 c 0.04,-13.542 5.19146,-118.45963 5.79446,-132.04263 -5.988,4.782 -16.315,8.198 -22.142,2.893 0.683,12.216 -3.86546,115.80763 -3.62446,128.06463 6.228,3.898 13.381,4.983 19.972,1.085 z m -2.492,162.632 c 4.903,-52.643 2.451,-105.045 2.492,-157.608 -5.465,3.376 -14.346,1.286 -19.892,-2.813 0.402,21.58 0.442,43.2 0.844,64.699 0.522,28.773 3.577,58.671 -2.572,87.002 -0.04,0.281 -0.08,0.563 -0.08,0.844 -0.04,0.804 -0.08,1.607 -0.12,2.451 0,0.12 0.04,0.201 0.04,0.322 0.08,1.447 -0.04,2.934 -0.322,4.42 v 0.08 0.04 c -1.567,8.68 -8.278,17.44 -16.918,18.847 -10.368,1.728 -20.575,-4.943 -26.402,-13.101 -3.416,2.17 -7.354,3.617 -11.694,4.139 -1.849,0.201 -3.576,0.201 -5.345,0.121 9.162,15.632 22.866,27.366 42.115,25.88 19.57,-1.487 31.666,-16.798 36.77,-34.359 0.16,-0.522 0.602,-0.844 1.084,-0.964 z m 7.52246,-298.57263 c -3.496,-2.813 -7.515,-3.416 -11.935,-2.692 -2.773,0.482 -10.529,1.648 -11.172,5.224 0.08,0 0.161,-0.04 0.241,0 8.439,6.028 15.351,2.693 22.866,-2.532 z m -82.95046,303.91763 c 15.632,-1.607 24.352,-16.677 19.892,-31.063 -15.391,3.416 -35.162,9.524 -50.835,6.389 -0.201,-0.04 -0.442,-0.04 -0.643,-0.08 3.978,14.747 15.31,26.441 31.586,24.754 z"
       style="fill:#1d1d1b"
       sodipodi:nodetypes="cccccccccccccccccccccccccccccccccccccccccccccccccccccccccc" />
    <path
       inkscape:connector-curvature="0"
       id="path1173"
       d="m 488.56486,414.27628 c -0.63549,13.583 -6.06453,118.50063 -6.10668,132.04263 -6.9451,3.898 -14.48352,2.813 -21.04817,-1.085 -0.25399,-12.257 4.53956,-115.84763 3.81976,-128.06463 6.13992,5.305 17.02443,1.889 23.33509,-2.893 z m -9.70675,122.27763 c 0.42366,-3.014 0.7198,-6.028 0.7198,-9.042 0,-1.005 -1.48176,-0.964 -1.60928,0 -0.42366,3.014 -0.50797,6.028 -0.46581,9.042 0,0.844 1.22777,0.804 1.35529,0 z m -1.56713,-3.496 c 0.0422,-1.366 0.0843,-2.693 0.0422,-4.019 -0.0422,-0.844 -1.31314,-0.844 -1.35529,0 -0.0422,1.326 0,2.652 0.0422,4.019 0,0.764 1.27098,0.764 1.27098,0 z"
       style="fill:#607ee3;fill-opacity:1;stroke-width:1.02658832"
       sodipodi:nodetypes="ccccccscccccccc" />
    <path
       inkscape:connector-curvature="0"
       id="path1175"
       d="m 481.38151,551.69014 c -0.04,52.563 2.411,104.965 -2.492,157.608 -0.482,0.12 -0.924,0.442 -1.085,0.964 -5.104,17.561 -17.199,32.872 -36.77,34.359 -19.249,1.487 -32.952,-10.247 -42.115,-25.88 1.768,0.08 3.496,0.08 5.345,-0.121 4.34,-0.522 8.278,-1.969 11.694,-4.139 5.827,8.158 16.034,14.829 26.402,13.101 8.64,-1.407 15.351,-10.167 16.918,-18.847 v -0.04 -0.08 c 0.281,-1.487 0.402,-2.974 0.322,-4.42 0,-0.121 -0.04,-0.201 -0.04,-0.322 0.04,-0.844 0.08,-1.648 0.12,-2.451 0,-0.281 0.04,-0.563 0.08,-0.844 6.148,-28.331 3.094,-58.229 2.572,-87.002 -0.402,-21.499 -0.442,-43.119 -0.844,-64.699 5.546,4.099 14.427,6.188 19.893,2.813 z m -5.868,38.618 c 0.442,-1.407 0.603,-2.693 0.482,-4.179 -0.08,-0.764 -1.246,-0.804 -1.246,0 0.04,1.326 -0.121,2.572 -0.523,3.858 -0.24,0.803 1.006,1.125 1.287,0.321 z m -2.893,50.554 c 0.08,-0.884 -1.407,-1.085 -1.607,-0.201 -0.442,2.411 -0.763,4.822 -1.045,7.233 -0.121,0.924 1.447,1.125 1.607,0.241 0.402,-2.411 0.804,-4.822 1.045,-7.273 z m -3.697,3.536 c 0.08,-0.723 -1.085,-0.884 -1.206,-0.161 -0.764,4.059 -1.286,8.158 -1.728,12.257 -0.08,0.643 1.005,0.804 1.125,0.161 0.724,-4.059 1.407,-8.158 1.809,-12.257 z m -6.912,82.26 c 0.442,-0.884 -0.844,-1.648 -1.366,-0.764 -1.567,2.532 -3.737,4.662 -6.269,6.269 -0.804,0.522 -0.08,1.728 0.764,1.286 3.013,-1.486 5.304,-3.817 6.871,-6.791 z m -0.763,6.43 c 0.362,-0.723 -0.643,-1.366 -1.085,-0.643 -1.688,2.813 -4.581,4.541 -7.917,4.42 -0.683,-0.04 -0.643,0.924 0,1.005 3.737,0.522 7.434,-1.366 9.002,-4.782 z"
       style="fill:#33aa6c"
       sodipodi:nodetypes="ccccccccccccccccccccccccccccccccccccccccccc" />
    <path
       inkscape:connector-curvature="0"
       id="path1177"
       d="m 477.95407,529.94347 c 0,3.014 -0.281,6.028 -0.683,9.042 -0.12,0.804 -1.286,0.844 -1.286,0 -0.04,-3.014 0.04,-6.028 0.442,-9.042 0.12,-0.965 1.527,-1.005 1.527,0 z"
       style="fill:#1d1d1b"
       sodipodi:nodetypes="scccs" />
    <path
       inkscape:connector-curvature="0"
       id="path1179"
       d="m 475.82407,531.47047 c 0.04,1.326 0,2.652 -0.04,4.019 0,0.764 -1.206,0.764 -1.206,0 -0.04,-1.366 -0.08,-2.693 -0.04,-4.019 0.04,-0.844 1.246,-0.844 1.286,0 z"
       style="fill:#1d1d1b"
       sodipodi:nodetypes="ccccc" />
    <path
       inkscape:connector-curvature="0"
       id="path1181"
       d="m 475.30207,588.21247 c 0.121,1.487 -0.04,2.773 -0.482,4.179 -0.281,0.804 -1.527,0.482 -1.286,-0.322 0.402,-1.286 0.563,-2.532 0.523,-3.858 -0.001,-0.803 1.164,-0.763 1.245,0.001 z"
       style="fill:#1d1d1b"
       sodipodi:nodetypes="ccccc" />
    <path
       inkscape:connector-curvature="0"
       id="path1183"
       d="m 474.12975,408.38073 c 4.42,-0.723 8.439,-0.121 11.935,2.692 -7.515,5.224 -14.427,8.56 -22.866,2.532 -0.08,-0.04 -0.161,0 -0.241,0 0.643,-3.576 8.399,-4.742 11.172,-5.224 z"
       style="fill:#f04f5a;fill-opacity:1"
       sodipodi:nodetypes="ccccc" />
    <path
       inkscape:connector-curvature="0"
       id="path1185"
       d="m 470.31907,642.74447 c 0.201,-0.884 1.688,-0.683 1.607,0.201 -0.241,2.451 -0.643,4.863 -1.045,7.274 -0.161,0.884 -1.728,0.683 -1.607,-0.241 0.281,-2.412 0.603,-4.823 1.045,-7.234 z"
       style="fill:#1d1d1b"
       sodipodi:nodetypes="ccccc" />
    <path
       inkscape:connector-curvature="0"
       id="path1187"
       d="m 467.71751,644.23714 c 0.12,-0.723 1.286,-0.563 1.206,0.161 -0.402,4.099 -1.085,8.198 -1.808,12.257 -0.121,0.643 -1.206,0.482 -1.125,-0.161 0.441,-4.099 0.964,-8.198 1.727,-12.257 z"
       style="fill:#1d1d1b"
       sodipodi:nodetypes="ccccc" />
    <path
       inkscape:connector-curvature="0"
       id="path1189"
       d="m 460.64551,725.89514 c 0.522,-0.884 1.808,-0.12 1.366,0.764 -1.567,2.974 -3.858,5.305 -6.872,6.791 -0.844,0.442 -1.567,-0.764 -0.764,-1.286 2.532,-1.608 4.702,-3.738 6.27,-6.269 z"
       style="fill:#1d1d1b"
       sodipodi:nodetypes="ccccc" />
    <path
       inkscape:connector-curvature="0"
       id="path1191"
       d="m 460.16351,732.44514 c 0.442,-0.723 1.447,-0.08 1.085,0.643 -1.567,3.416 -5.264,5.305 -9.002,4.782 -0.643,-0.08 -0.683,-1.045 0,-1.005 3.335,0.121 6.229,-1.607 7.917,-4.42 z"
       style="fill:#1d1d1b"
       sodipodi:nodetypes="ccccc" />
    <path
       inkscape:connector-curvature="0"
       id="path1205"
       d="m 423.35251,683.57914 c 4.461,14.386 -4.26,29.456 -19.892,31.063 -16.275,1.688 -27.608,-10.006 -31.586,-24.754 0.201,0.04 0.442,0.04 0.643,0.08 15.673,3.135 35.444,-2.973 50.835,-6.389 z m -21.981,25.719 c 0.723,0.241 1.045,-0.884 0.322,-1.165 -3.295,-1.165 -6.47,-2.572 -9.444,-4.38 -0.522,-0.321 -1.005,0.482 -0.482,0.804 3.013,2.008 6.148,3.616 9.604,4.741 z m -8.037,1.447 c 0.764,0.161 1.085,-0.924 0.322,-1.125 -3.094,-0.844 -5.626,-2.492 -7.796,-4.822 -0.482,-0.523 -1.447,0.161 -1.005,0.723 2.129,2.772 5.063,4.54 8.479,5.224 z"
       style="fill:#607ee3;fill-opacity:1"
       sodipodi:nodetypes="ccccccccccccccc" />
    <path
       inkscape:connector-curvature="0"
       id="path1213"
       d="m 401.69251,708.13314 c 0.723,0.281 0.402,1.406 -0.322,1.165 -3.456,-1.125 -6.59,-2.733 -9.604,-4.742 -0.522,-0.321 -0.04,-1.125 0.482,-0.804 2.974,1.809 6.149,3.215 9.444,4.381 z"
       style="fill:#1d1d1b"
       sodipodi:nodetypes="ccccc" />
    <path
       inkscape:connector-curvature="0"
       id="path1215"
       d="m 393.65551,709.61914 c 0.763,0.201 0.442,1.286 -0.322,1.125 -3.416,-0.683 -6.349,-2.451 -8.479,-5.224 -0.442,-0.563 0.522,-1.246 1.005,-0.723 2.17,2.331 4.702,3.978 7.796,4.822 z"
       style="fill:#1d1d1b"
       sodipodi:nodetypes="ccccc" />
  </g>
</svg>
